<svg xmlns="http://www.w3.org/2000/svg" height="1225" width="1634" version="1.1" xmlns:xlink="http://www.w3.org/1999/xlink" xmlns:svgjs="http://svgjs.com/svgjs"><rect fill="transparent" width="1634" height="1225"></rect><g><path d="M932.78 1041.07V1031.84C932.78 1020.48 923.54 1011.25 912.19 1011.25H794.64C783.29 1011.25 774.05 1020.48 774.05 1031.84V1041.07" stroke="#cc9661" stroke-width="4" stroke-linecap="round" stroke-linejoin="round" opacity="1" fill="none"></path><path d="M937.11 815.1H769.73C762.61 815.1 756.74 820.97 756.74 828.09 756.74 835.21 762.51 841.08 769.73 841.08H824.27V861.28H840.43V989.12H824.08V1011.25H882.28V989.12H866.4V861.28H882.47V841.08H937.11C944.23 841.08 950.09 835.21 950.09 828.09 950.09 820.97 944.32 815.1 937.11 815.1Z" fill="#cc9661" opacity="1" stroke-width="4" stroke="none"></path><path d="M840.43 861.28H866.4" stroke="#eddac8" stroke-width="4" stroke-linecap="round" stroke-linejoin="round" opacity="1" fill="none"></path><path d="M840.43 989.12H866.4" stroke="#eddac8" stroke-width="4" stroke-linecap="round" stroke-linejoin="round" opacity="1" fill="none"></path><path d="M853.42 1046.84V1011.63" stroke="#cc9661" stroke-width="4" stroke-linecap="round" stroke-linejoin="round" opacity="1" fill="none"></path><path d="M932.49 1063.2C941.52 1063.2 948.84 1055.88 948.84 1046.84 948.84 1037.81 941.52 1030.49 932.49 1030.49 923.46 1030.49 916.14 1037.81 916.14 1046.84 916.14 1055.88 923.46 1063.2 932.49 1063.2Z" fill="#d1cab8" opacity="1" stroke-width="4" stroke="none"></path><path d="M932.49 1051.65C935.15 1051.65 937.3 1049.5 937.3 1046.84 937.3 1044.19 935.15 1042.03 932.49 1042.03 929.84 1042.03 927.68 1044.19 927.68 1046.84 927.68 1049.5 929.84 1051.65 932.49 1051.65Z" fill="#cc9661" opacity="1" stroke-width="4" stroke="none"></path><path d="M853.22 1063.2C862.26 1063.2 869.58 1055.88 869.58 1046.84 869.58 1037.81 862.26 1030.49 853.22 1030.49 844.19 1030.49 836.87 1037.81 836.87 1046.84 836.87 1055.88 844.19 1063.2 853.22 1063.2Z" fill="#d1cab8" opacity="1" stroke-width="4" stroke="none"></path><path d="M853.51 1051.65C856.17 1051.65 858.32 1049.5 858.32 1046.84 858.32 1044.19 856.17 1042.03 853.51 1042.03 850.86 1042.03 848.7 1044.19 848.7 1046.84 848.7 1049.5 850.86 1051.65 853.51 1051.65Z" fill="#cc9661" opacity="1" stroke-width="4" stroke="none"></path><path d="M773.67 1063.2C782.7 1063.2 790.02 1055.88 790.02 1046.84 790.02 1037.81 782.7 1030.49 773.67 1030.49 764.64 1030.49 757.32 1037.81 757.32 1046.84 757.32 1055.88 764.64 1063.2 773.67 1063.2Z" fill="#d1cab8" opacity="1" stroke-width="4" stroke="none"></path><path d="M773.67 1051.65C776.32 1051.65 778.48 1049.5 778.48 1046.84 778.48 1044.19 776.32 1042.03 773.67 1042.03 771.01 1042.03 768.86 1044.19 768.86 1046.84 768.86 1049.5 771.01 1051.65 773.67 1051.65Z" fill="#cc9661" opacity="1" stroke-width="4" stroke="none"></path></g><g><path d="M883.89 495.92L877.15 477.57C877.04 477.35 873.17 468.17 867.42 455.57 859.68 438.66 845.86 420.64 834.92 401.63 824.53 383.5 810.38 374.77 790.93 374.77 775.56 374.77 762.3 378.3 751.91 388.58 731.35 409.14 733.78 425.39 737.1 438.22 740.52 451.7 743.84 460.32 752.9 483.32 757.99 496.03 768.82 509.51 784.07 509.51 784.96 509.51 785.95 509.4 786.73 509.29 799.33 507.41 805.96 502.22 806.96 501.44 807.07 501.44 807.07 501.44 807.18 501.44L810.38 510.29 815.14 529.52 858.02 545.22 883.89 495.92Z" fill="#e6bc8e" opacity="1" stroke-width="4" stroke="none"></path><path d="M821.44 487.07C817.13 492.38 812.26 496.91 806.96 501.22V501.33L810.16 510.18 811.6 514.38C811.6 514.49 811.82 514.49 811.82 514.38L821.66 487.07C821.66 486.96 821.55 486.96 821.44 487.07Z" fill="#52402d" opacity="0.3" stroke-width="4" stroke="none"></path><path d="M849.07 460.32C857.03 460.32 863.11 458.67 867.31 455.57 867.31 455.57 867.42 455.46 867.31 455.46 856.48 431.69 846.2 411.24 837.46 396.32 827.07 378.19 810.6 368.25 791.15 368.25 775.78 368.25 759.76 374.77 749.37 385.05 728.81 405.61 733.56 425.17 736.88 437.99 736.88 437.99 736.88 438.11 736.99 438.11 737.87 438.33 748.48 440.65 757.32 428.82 757.32 428.71 757.43 428.71 757.55 428.82 765.73 442.97 782.2 434.68 783.52 433.9H783.63C784.18 434.79 788.72 442.2 797.89 442.42 797.89 442.42 798 442.42 798 442.31 798.22 441.75 798.55 441.09 798.78 440.54 802.2 432.36 809.28 415 822.54 415 824.75 415 827.07 415.45 829.51 416.44 834.48 418.43 837.8 421.86 839.45 426.5 843.43 438.77 833.82 456.45 833.04 458 833.04 458.11 833.04 458.11 833.15 458.11 834.15 458.55 841.11 460.32 849.07 460.32Z" fill="#000000" opacity="1" stroke-width="4" stroke="none"></path><path d="M817.35 446.4L822.98 435.78" stroke="#52402d" stroke-width="4" stroke-linecap="round" stroke-linejoin="round" opacity="1" fill="none"></path><path d="M776.45 486.52C777.66 483.65 780.43 481.44 783.74 480.88" stroke="#52402d" stroke-width="4" stroke-linecap="round" stroke-linejoin="round" opacity="1" fill="none"></path><path d="M764.3 469.94C764.96 472.37 766.07 475.02 766.84 475.58 767.95 476.13 768.94 476.24 770.16 476.13" stroke="#52402d" stroke-width="4" stroke-linecap="round" stroke-linejoin="round" opacity="1" fill="none"></path><path d="M778.88 453.8C777 455.68 774.68 457.01 772.14 457.23" stroke="#52402d" stroke-width="4" stroke-linecap="round" stroke-linejoin="round" opacity="1" fill="none"></path><path d="M754.23 465.3C752.35 466.62 750.47 467.51 748.37 468.06" stroke="#52402d" stroke-width="4" stroke-linecap="round" stroke-linejoin="round" opacity="1" fill="none"></path><path d="M806.96 501.22C812.04 497.13 818.12 491.94 821.88 486.52" stroke="#52402d" stroke-width="4" stroke-linecap="round" stroke-linejoin="round" opacity="1" fill="none"></path><path d="M614.84 936.08C619.48 925.8 620.15 918.72 622.69 906.01 622.69 906.01 622.69 906.01 622.69 905.9L633.52 897.28 721.62 943.81V954.09C718.53 965.92 714.55 977.86 710.13 990.02 707.47 996.98 704.82 1004.17 701.83 1011.24L639.38 993.55 614.84 936.08Z" fill="#e6bc8e" opacity="1" stroke-width="4" stroke="none"></path><path d="M613.85 938.06C614.18 937.4 614.51 936.63 614.84 936.08L641.59 949.67C649.55 953.65 650.88 964.59 644.13 970.23L635.51 977.53C635.29 977.75 635.29 978.08 635.62 978.3L701.95 1011.35C701.72 1011.68 701.61 1012.12 701.5 1012.46 700.29 1015.44 698.96 1018.43 697.63 1021.52 694.43 1028.82 691.11 1036.33 687.35 1043.85 687.13 1044.18 686.69 1045.06 686.58 1045.4L608.65 1015.88 552.17 977.75C563.44 966.25 596.6 972.22 613.85 938.06Z" fill="#d1cab8" opacity="1" stroke-width="4" stroke="none"></path><path d="M538.69 993.89C541.35 988.47 544.44 984.38 547.87 981.17 549.19 979.96 550.63 978.74 552.07 977.75L686.7 1044.95C683.83 1050.92 680.73 1056.89 677.53 1062.97L538.69 993.89Z" fill="#41a8d8" opacity="1" stroke-width="4" stroke="none"></path><path d="M947.23 708.04L939.93 673.99 835.47 690.79C835.47 690.79 721.07 723.84 678.84 755.79 646.79 780 642.37 801.55 631.09 861.13 628.11 877.05 625.23 892.97 622.69 905.9 622.69 905.9 622.69 906.01 622.8 906.01L721.51 954.31C738.75 889.43 740.3 857.15 740.19 815.26L860.01 815.59C916.83 815.92 959.28 763.53 947.23 708.04Z" fill="#41a8d8" opacity="1" stroke-width="4" stroke="none"></path><path d="M657.62 804.2C678.73 755.79 740.19 815.26 740.19 815.26 740.41 857.04 738.75 889.43 721.51 954.31 718.42 966.14 714.44 978.08 710.01 990.24 707.36 997.2 704.71 1004.39 701.72 1011.46 701.5 1011.79 701.39 1012.24 701.28 1012.57 700.07 1015.55 698.74 1018.54 697.41 1021.63 694.21 1028.93 690.89 1036.44 687.13 1043.96 686.91 1044.29 686.8 1044.62 686.69 1045.06 683.82 1051.03 680.72 1057 677.52 1063.08L636.18 1042.41C640.38 1017.43 673.98 1017.43 670.44 977.86 667.57 945.36 640.16 840.9 657.62 804.2Z" fill="#52402d" opacity="0.3" stroke-width="4" stroke="none"></path><path d="M695.42 982.94C694.76 970.89 694.65 967.25 689.01 947.57L694.87 935.08 794.35 936.96 799 945.91C801.54 957.85 803.42 970.45 804.86 983.39 805.74 991.23 806.51 999.19 807.07 1007.37 807.18 1008.7 807.29 1009.91 807.29 1011.24 807.29 1011.35 807.29 1011.35 807.18 1011.35L721.18 1023.84 695.42 982.94Z" fill="#e6bc8e" opacity="1" stroke-width="4" stroke="none"></path><path d="M658.95 1042.19C670 1023.73 694.1 1018.54 695.42 982.94H724.49C733.34 982.94 739.42 992.01 735.99 1000.19L731.57 1010.47C731.46 1010.8 731.68 1011.24 732.01 1011.24H807.18C807.29 1011.24 807.29 1011.24 807.29 1011.35 807.4 1013.23 807.62 1015.11 807.73 1016.99 808.17 1025.06 808.5 1033.24 808.61 1041.53V1044.51C808.61 1044.51 808.61 1044.62 808.5 1044.62L767.83 1051.7 657.73 1044.62C657.62 1044.62 657.62 1044.51 657.62 1044.51 658.06 1043.85 658.5 1042.96 658.95 1042.19Z" fill="#d1cab8" opacity="1" stroke-width="4" stroke="none"></path><path d="M657.73 1044.62H808.5C808.61 1044.62 808.61 1044.62 808.61 1044.73 808.72 1050.81 808.61 1056.89 808.5 1063.19L653.53 1063.75C653.53 1057.67 654.41 1052.58 656.07 1048.38 656.51 1047.05 657.07 1045.84 657.73 1044.62 657.62 1044.62 657.62 1044.62 657.73 1044.62Z" fill="#41a8d8" opacity="1" stroke-width="4" stroke="none"></path><path d="M959.83 673.99L819.23 677.2C819.23 677.2 787.72 690.57 751.69 701.85 712.78 714.01 668.78 733.35 653.53 760.98 633.41 797.46 659.5 845.32 676.3 903.47 680.72 919.05 685.36 934.64 689.01 947.35L798.89 945.91C799 945.91 799 945.8 799 945.8 785.18 880.36 772.14 853.28 753.23 816.03 753.23 815.92 753.23 815.81 753.35 815.81H824.42 912.74C991.22 816.03 1003.93 730.7 959.83 673.99Z" fill="#41a8d8" opacity="1" stroke-width="4" stroke="none"></path><path d="M646.46 797.02C648.33 827.31 664.58 862.79 676.3 903.47 680.72 919.05 685.36 934.64 689.01 947.35" stroke="#88c9e7" stroke-width="4" stroke-linecap="round" stroke-linejoin="round" opacity="1" fill="none"></path><path d="M737.32 788.51L753.12 815.7H753.23L824.53 815.7C785.95 815.7 751.47 784.2 737.43 788.29 737.32 788.4 737.21 788.51 737.32 788.51Z" fill="#41a8d8" opacity="0.15" stroke-width="4" stroke="none"></path><path d="M731.35 1011.35L716.2 1044.62" stroke="#373737" stroke-width="4" stroke-linecap="round" stroke-linejoin="round" opacity="1" fill="none"></path><path d="M634.96 977.97L598.92 1001.29" stroke="#373737" stroke-width="4" stroke-linecap="round" stroke-linejoin="round" opacity="1" fill="none"></path><path d="M687.8 1010.25L701.83 1017.54" stroke="#373737" stroke-width="4" stroke-linecap="round" stroke-linejoin="round" opacity="1" fill="none"></path><path d="M681.06 1018.76L692.23 1030.36" stroke="#373737" stroke-width="4" stroke-linecap="round" stroke-linejoin="round" opacity="1" fill="none"></path><path d="M599.92 955.97L612.74 968.46" stroke="#373737" stroke-width="4" stroke-linecap="round" stroke-linejoin="round" opacity="1" fill="none"></path><path d="M591.41 962.38L598.37 977.86" stroke="#373737" stroke-width="4" stroke-linecap="round" stroke-linejoin="round" opacity="1" fill="none"></path><path d="M753.12 815.81L736.99 787.96" stroke="#88c9e7" stroke-width="4" stroke-linecap="round" stroke-linejoin="round" opacity="1" fill="none"></path><path d="M751.69 701.85C751.69 701.85 760.75 620.27 770.81 573.4 780.87 526.54 809.83 510.29 810.16 510.18L811.6 514.38C812.48 517.03 813.81 519.46 815.69 522 820.44 528.3 827.96 532.17 836.03 532.17 841.44 532.17 846.53 530.51 850.95 527.31 871.29 512.28 877.04 477.9 877.15 477.57 885.33 475.36 893.51 474.14 901.46 474.14 951.98 474.14 978.18 513.49 992.22 537.37 1015.76 577.49 1046.6 658.3 1026.7 699.42 1019.96 713.23 1007.47 722.08 989.89 725.17 987.9 725.5 985.58 725.72 982.93 725.72 960.6 725.72 920.92 711.68 866.65 684.6L819.23 685.38C819.23 685.38 790.6 690.79 751.69 701.85Z" fill="transparent" opacity="1" stroke-width="4" stroke="none"></path><path d="M814.25 594.52L819.23 685.38C819.23 685.49 819.23 685.49 819.11 685.49 817.79 685.71 802.64 688.58 779.98 694.22 779.87 694.22 779.87 694.11 779.87 694.11L814.14 594.52C814.14 594.4 814.25 594.4 814.25 594.52Z" fill="#4d4d4d" opacity="0.3" stroke-width="4" stroke="none"></path><path d="M814.25 593.96L819.23 685.49" stroke="#4d4d4d" stroke-width="4" stroke-linecap="round" stroke-linejoin="round" opacity="1" fill="none"></path><path d="M920.92 581.47L932.75 620.82C932.75 620.93 932.75 620.93 932.64 620.93 924.46 618.28 915.95 615.19 907.43 613.09L920.7 581.47C920.7 581.36 920.92 581.36 920.92 581.47Z" fill="#4d4d4d" opacity="0.3" stroke-width="4" stroke="none"></path><path d="M770.82 706.93C782.43 706.93 802.43 674.1 802.66 673.88 822.11 670.23 828.63 667.14 830.4 666.25 830.73 666.03 831.06 666.03 831.4 666.25 833.39 667.36 841.12 671.56 851.18 676.76L874.62 606.67C858.92 604.02 844.11 602.58 830.62 602.58 783.97 599.93 739.54 631.32 725.83 655.75 717.98 668.02 724.62 673.77 724.73 673.77 719.64 682.61 722.52 689.8 729.37 691.9 729.04 695.77 731.58 701.52 736.89 701.18 750.59 700.41 771.48 677.09 778.78 670.79 779.33 670.57 779.44 671.12 779.22 671.34 777.34 676.09 761.2 708.81 770.82 706.93Z" fill="#e6bc8e" opacity="1" stroke-width="4" stroke="none"></path><path d="M729.69 691.9C736.43 683.94 749.7 665.92 768.82 653.54" stroke="#52402d" stroke-width="4" stroke-linecap="round" stroke-linejoin="round" opacity="1" fill="none"></path><path d="M724.72 673.77C739.42 652.33 760.97 636.74 760.97 636.74" stroke="#52402d" stroke-width="4" stroke-linecap="round" stroke-linejoin="round" opacity="1" fill="none"></path><path d="M874.6 606.67C910.75 612.31 920.59 616.73 933.08 621.93" stroke="#4d4d4d" stroke-width="4" stroke-linecap="round" stroke-linejoin="round" opacity="1" fill="none"></path><path d="M920.81 581.14L933.08 621.93" stroke="#4d4d4d" stroke-width="4" stroke-linecap="round" stroke-linejoin="round" opacity="1" fill="none"></path><path d="M866.65 684.6L851.17 676.76" stroke="#4d4d4d" stroke-width="4" stroke-linecap="round" stroke-linejoin="round" opacity="1" fill="none"></path></g><g><path d="M1142.26 689.04H1117.04V1063.51H1142.26V689.04Z" fill="#cc9661" opacity="1" stroke-width="4" stroke="none"></path><path d="M527.79 689.04H502.57V1063.51H527.79V689.04Z" fill="#cc9661" opacity="1" stroke-width="4" stroke="none"></path><path d="M471.76 675.04H1174.01C1175.67 675.03 1177.31 675.35 1178.85 675.98 1180.38 676.61 1181.77 677.54 1182.94 678.71 1184.11 679.89 1185.04 681.28 1185.67 682.81 1186.3 684.34 1186.62 685.99 1186.62 687.64 1186.62 689.3 1186.3 690.94 1185.67 692.48 1185.04 694.01 1184.11 695.4 1182.94 696.57 1181.77 697.75 1180.38 698.67 1178.85 699.3 1177.31 699.93 1175.67 700.26 1174.01 700.25H471.76C470.1 700.26 468.46 699.93 466.93 699.3 465.39 698.67 464 697.75 462.83 696.57 461.66 695.4 460.73 694.01 460.1 692.48 459.47 690.94 459.14 689.3 459.15 687.64 459.14 685.99 459.47 684.34 460.1 682.81 460.73 681.28 461.66 679.89 462.83 678.71 464 677.54 465.39 676.61 466.93 675.98 468.46 675.35 470.1 675.03 471.76 675.04Z" fill="#cc9661" opacity="1" stroke-width="4" stroke="none"></path></g><g><path d="M1084.49 673.76L1084.46 527.59 1138.19 527.56 1138.22 673.76H1084.49Z" fill="#41a8d8" opacity="1" stroke-width="4" stroke="none"></path><path d="M1084.49 673.76L1084.46 527.59 1138.32 673.76H1084.49Z" fill="#0083c0" opacity="0.3" stroke-width="4" stroke="none"></path><path d="M1111.39 656.37C1117.01 656.37 1121.56 651.81 1121.56 646.19 1121.56 640.57 1117.01 636.01 1111.39 636.01 1105.76 636.01 1101.21 640.57 1101.21 646.19 1101.21 651.81 1105.76 656.37 1111.39 656.37Z" fill="#121212" opacity="1" stroke-width="4" stroke="none"></path><path d="M1031.26 673.76L1031.23 527.59 1084.96 527.56 1084.99 673.76H1031.26Z" fill="#d1cab8" opacity="1" stroke-width="4" stroke="none"></path><path d="M1031.26 673.76L1031.23 527.59 1085 673.76H1031.26Z" fill="#818181" opacity="0.3" stroke-width="4" stroke="none"></path><path d="M1058.16 656.37C1063.78 656.37 1068.34 651.81 1068.34 646.19 1068.34 640.57 1063.78 636.01 1058.16 636.01 1052.53 636.01 1047.98 640.57 1047.98 646.19 1047.98 651.81 1052.53 656.37 1058.16 656.37Z" fill="#121212" opacity="1" stroke-width="4" stroke="none"></path><path d="M1084.49 528.52V673.74" stroke="#121212" stroke-width="4" stroke-linecap="round" stroke-linejoin="round" opacity="1" fill="none"></path></g><g><path d="M518.6 638.14C501.96 638.14 484.78 624.6 480.29 607.96L448.91 490.86C446.69 482.56 447.9 474.82 452.32 469.06 456.52 463.58 463.18 460.57 471.07 460.57H659.05C675.7 460.57 692.89 474.15 697.37 490.84L728.74 607.85C730.93 616.17 729.68 623.93 725.24 629.69 721.03 635.14 714.41 638.14 706.59 638.14H518.6Z" fill="#d1cab8" opacity="1" stroke-width="4" stroke="none"></path><path d="M620.67 638.14C620.61 637.75 620.57 637.35 620.55 636.95 620.53 636.55 620.51 636.16 620.46 635.78 619.25 623.7 611.39 613.86 602.93 613.86 601.34 613.88 599.77 614.23 598.33 614.9 596.89 615.57 595.61 616.54 594.58 617.75 590.86 621.83 589.03 628.57 589.69 635.78L589.97 638.11 568.94 638.14 564.24 589.56 637.11 589.53 641.9 638.14H620.67Z" fill="#121212" opacity="0.3" stroke-width="4" stroke="none"></path><path d="M540.92 675.5L563.87 589.55 636.83 589.53 613.78 675.5H540.92ZM593.68 613.86C585.26 613.86 575.77 623.7 572.51 635.79 570.55 643.06 571.26 649.84 574.39 653.93 575.27 655.12 576.42 656.08 577.75 656.74 579.07 657.39 580.53 657.72 582.01 657.7 590.48 657.7 600.02 647.86 603.28 635.77 605.18 628.48 604.44 621.69 601.29 617.61 600.41 616.43 599.26 615.47 597.94 614.82 596.62 614.17 595.16 613.84 593.68 613.86Z" fill="#41a8d8" opacity="1" stroke-width="4" stroke="none"></path><path d="M556.61 505.32L561.19 522.51" stroke="#121212" stroke-width="4" stroke-linecap="round" stroke-linejoin="round" opacity="1" fill="none"></path><path d="M578.09 505.32L582.66 522.51" stroke="#121212" stroke-width="4" stroke-linecap="round" stroke-linejoin="round" opacity="1" fill="none"></path><path d="M599.57 505.32L604.14 522.51" stroke="#121212" stroke-width="4" stroke-linecap="round" stroke-linejoin="round" opacity="1" fill="none"></path><path d="M646.91 675.5C646.91 673.77 647.24 672.07 647.9 670.48 648.55 668.89 649.51 667.44 650.73 666.22 651.94 665 653.38 664.03 654.97 663.37 656.56 662.71 658.27 662.37 659.99 662.37H815.94C819.41 662.37 822.74 663.75 825.2 666.21 827.65 668.67 829.04 672 829.04 675.47V675.5H646.91Z" fill="#d1cab8" opacity="1" stroke-width="4" stroke="none"></path><path d="M767.38 675.5C767.37 673.77 767.71 672.07 768.36 670.48 769.02 668.89 769.98 667.44 771.19 666.22 772.41 665 773.85 664.03 775.44 663.37 777.03 662.71 778.73 662.37 780.45 662.37H815.94C819.41 662.37 822.74 663.75 825.2 666.21 827.65 668.67 829.04 672 829.04 675.47V675.5H767.38Z" fill="#41a8d8" opacity="1" stroke-width="4" stroke="none"></path></g></svg>